<mxfile host="" modified="2021-01-18T23:47:40.750Z" agent="5.0 (Macintosh; Intel Mac OS X 10_16_0) AppleWebKit/537.36 (KHTML, like Gecko) Chrome/81.0.4044.113 Safari/537.36" etag="LBB66w5PeKIOXqMoWOWu" version="13.7.9" type="embed" pages="2"><diagram id="e5tNT8h9JMYcgvwV7Lg8" name="Check-in Utente"><mxGraphModel dx="1142" dy="800" grid="1" gridSize="10" guides="1" tooltips="1" connect="1" arrows="1" fold="1" page="1" pageScale="1" pageWidth="827" pageHeight="1169" math="0" shadow="0"><root><mxCell id="bafPzPqKLuY_yBNXklir-0"/><mxCell id="bafPzPqKLuY_yBNXklir-1" parent="bafPzPqKLuY_yBNXklir-0"/><mxCell id="Xsw5yw4zyk3_1p55zwhL-0" value="Check-in Utente" style="swimlane;html=1;childLayout=stackLayout;startSize=20;rounded=0;shadow=0;comic=0;labelBackgroundColor=none;strokeWidth=1;fontFamily=Verdana;fontSize=12;align=center;" parent="bafPzPqKLuY_yBNXklir-1" vertex="1"><mxGeometry x="160" y="20" width="1130" height="990" as="geometry"/></mxCell><mxCell id="Xsw5yw4zyk3_1p55zwhL-1" value="Utente" style="swimlane;html=1;startSize=20;" parent="Xsw5yw4zyk3_1p55zwhL-0" vertex="1"><mxGeometry y="20" width="340" height="970" as="geometry"/></mxCell><mxCell id="Xsw5yw4zyk3_1p55zwhL-2" value="" style="ellipse;fillColor=#000000;strokeColor=none;" parent="Xsw5yw4zyk3_1p55zwhL-1" vertex="1"><mxGeometry x="150" y="50" width="30" height="30" as="geometry"/></mxCell><mxCell id="Xsw5yw4zyk3_1p55zwhL-3" style="edgeStyle=orthogonalEdgeStyle;rounded=0;orthogonalLoop=1;jettySize=auto;html=1;exitX=0.5;exitY=1;exitDx=0;exitDy=0;entryX=0.5;entryY=0;entryDx=0;entryDy=0;" parent="Xsw5yw4zyk3_1p55zwhL-1" source="Xsw5yw4zyk3_1p55zwhL-2" edge="1"><mxGeometry relative="1" as="geometry"><mxPoint x="165" y="130" as="targetPoint"/></mxGeometry></mxCell><mxCell id="Xsw5yw4zyk3_1p55zwhL-4" value="Comparecer na unidade de sáude" style="rounded=1;whiteSpace=wrap;html=1;" parent="Xsw5yw4zyk3_1p55zwhL-1" vertex="1"><mxGeometry x="105" y="130" width="120" height="60" as="geometry"/></mxCell><mxCell id="Xsw5yw4zyk3_1p55zwhL-5" value="" style="rhombus;whiteSpace=wrap;html=1;" parent="Xsw5yw4zyk3_1p55zwhL-1" vertex="1"><mxGeometry x="147.5" y="220" width="35" height="50" as="geometry"/></mxCell><mxCell id="Xsw5yw4zyk3_1p55zwhL-6" style="edgeStyle=orthogonalEdgeStyle;rounded=0;orthogonalLoop=1;jettySize=auto;html=1;exitX=0.5;exitY=1;exitDx=0;exitDy=0;" parent="Xsw5yw4zyk3_1p55zwhL-1" source="Xsw5yw4zyk3_1p55zwhL-4" target="Xsw5yw4zyk3_1p55zwhL-5" edge="1"><mxGeometry relative="1" as="geometry"><mxPoint x="165" y="230" as="targetPoint"/></mxGeometry></mxCell><mxCell id="Xsw5yw4zyk3_1p55zwhL-9" value="Leitor de cartões" style="swimlane;html=1;startSize=20;" parent="Xsw5yw4zyk3_1p55zwhL-0" vertex="1"><mxGeometry x="340" y="20" width="250" height="970" as="geometry"/></mxCell><mxCell id="Xsw5yw4zyk3_1p55zwhL-8" value="Fazer check-in&lt;br&gt;automático" style="rounded=1;whiteSpace=wrap;html=1;" parent="Xsw5yw4zyk3_1p55zwhL-9" vertex="1"><mxGeometry x="65" y="95" width="120" height="50" as="geometry"/></mxCell><mxCell id="Xsw5yw4zyk3_1p55zwhL-13" value="Recepcionista" style="swimlane;html=1;startSize=20;" parent="Xsw5yw4zyk3_1p55zwhL-0" vertex="1"><mxGeometry x="590" y="20" width="250" height="970" as="geometry"><mxRectangle x="500" y="20" width="30" height="970" as="alternateBounds"/></mxGeometry></mxCell><mxCell id="Xsw5yw4zyk3_1p55zwhL-56" value="&lt;span&gt;Fazer check-in ao balcão&lt;/span&gt;" style="rounded=1;whiteSpace=wrap;html=1;" parent="Xsw5yw4zyk3_1p55zwhL-13" vertex="1"><mxGeometry x="70" y="95" width="120" height="50" as="geometry"/></mxCell><mxCell id="Xsw5yw4zyk3_1p55zwhL-17" value="Sistema informático" style="swimlane;html=1;startSize=20;" parent="Xsw5yw4zyk3_1p55zwhL-0" vertex="1"><mxGeometry x="840" y="20" width="290" height="970" as="geometry"><mxRectangle x="500" y="20" width="30" height="970" as="alternateBounds"/></mxGeometry></mxCell><mxCell id="7CPrJkXIrBm-ejwcja7y-1" style="edgeStyle=orthogonalEdgeStyle;rounded=0;orthogonalLoop=1;jettySize=auto;html=1;exitX=0.5;exitY=1;exitDx=0;exitDy=0;" edge="1" parent="Xsw5yw4zyk3_1p55zwhL-17" source="Xsw5yw4zyk3_1p55zwhL-18" target="7CPrJkXIrBm-ejwcja7y-0"><mxGeometry relative="1" as="geometry"/></mxCell><mxCell id="Xsw5yw4zyk3_1p55zwhL-18" value="Registar hora de entrada do utente" style="rounded=1;whiteSpace=wrap;html=1;" parent="Xsw5yw4zyk3_1p55zwhL-17" vertex="1"><mxGeometry x="90" y="320" width="120" height="60" as="geometry"/></mxCell><mxCell id="Xsw5yw4zyk3_1p55zwhL-64" style="edgeStyle=orthogonalEdgeStyle;rounded=0;orthogonalLoop=1;jettySize=auto;html=1;exitX=0.5;exitY=1;exitDx=0;exitDy=0;entryX=0.5;entryY=0;entryDx=0;entryDy=0;" parent="Xsw5yw4zyk3_1p55zwhL-17" source="Xsw5yw4zyk3_1p55zwhL-53" target="Xsw5yw4zyk3_1p55zwhL-54" edge="1"><mxGeometry relative="1" as="geometry"/></mxCell><mxCell id="Xsw5yw4zyk3_1p55zwhL-53" value="Registar entrada do utente" style="rounded=1;whiteSpace=wrap;html=1;" parent="Xsw5yw4zyk3_1p55zwhL-17" vertex="1"><mxGeometry x="90" y="90" width="120" height="60" as="geometry"/></mxCell><mxCell id="Xsw5yw4zyk3_1p55zwhL-66" style="edgeStyle=orthogonalEdgeStyle;rounded=0;orthogonalLoop=1;jettySize=auto;html=1;exitX=0.5;exitY=1;exitDx=0;exitDy=0;entryX=0.5;entryY=0;entryDx=0;entryDy=0;" parent="Xsw5yw4zyk3_1p55zwhL-17" source="Xsw5yw4zyk3_1p55zwhL-54" target="Xsw5yw4zyk3_1p55zwhL-18" edge="1"><mxGeometry relative="1" as="geometry"/></mxCell><mxCell id="Xsw5yw4zyk3_1p55zwhL-54" value="Imprimir senha de espera" style="rounded=1;whiteSpace=wrap;html=1;" parent="Xsw5yw4zyk3_1p55zwhL-17" vertex="1"><mxGeometry x="90" y="200" width="120" height="60" as="geometry"/></mxCell><mxCell id="7CPrJkXIrBm-ejwcja7y-0" value="" style="ellipse;html=1;shape=endState;fillColor=#000000;strokeColor=#000000;" vertex="1" parent="Xsw5yw4zyk3_1p55zwhL-17"><mxGeometry x="135" y="420" width="30" height="30" as="geometry"/></mxCell><mxCell id="Xsw5yw4zyk3_1p55zwhL-57" style="edgeStyle=orthogonalEdgeStyle;rounded=0;orthogonalLoop=1;jettySize=auto;html=1;exitX=1;exitY=0.5;exitDx=0;exitDy=0;entryX=0;entryY=0.5;entryDx=0;entryDy=0;" parent="Xsw5yw4zyk3_1p55zwhL-0" source="Xsw5yw4zyk3_1p55zwhL-5" target="Xsw5yw4zyk3_1p55zwhL-8" edge="1"><mxGeometry relative="1" as="geometry"/></mxCell><mxCell id="Xsw5yw4zyk3_1p55zwhL-58" style="edgeStyle=orthogonalEdgeStyle;rounded=0;orthogonalLoop=1;jettySize=auto;html=1;exitX=0.5;exitY=1;exitDx=0;exitDy=0;entryX=0;entryY=0.5;entryDx=0;entryDy=0;" parent="Xsw5yw4zyk3_1p55zwhL-0" source="Xsw5yw4zyk3_1p55zwhL-5" target="Xsw5yw4zyk3_1p55zwhL-56" edge="1"><mxGeometry relative="1" as="geometry"><Array as="points"><mxPoint x="165" y="310"/><mxPoint x="620" y="310"/><mxPoint x="620" y="140"/></Array></mxGeometry></mxCell><mxCell id="Xsw5yw4zyk3_1p55zwhL-61" style="edgeStyle=orthogonalEdgeStyle;rounded=0;orthogonalLoop=1;jettySize=auto;html=1;exitX=0.5;exitY=1;exitDx=0;exitDy=0;entryX=0;entryY=0.5;entryDx=0;entryDy=0;" parent="Xsw5yw4zyk3_1p55zwhL-0" source="Xsw5yw4zyk3_1p55zwhL-8" target="Xsw5yw4zyk3_1p55zwhL-53" edge="1"><mxGeometry relative="1" as="geometry"><Array as="points"><mxPoint x="465" y="200"/><mxPoint x="880" y="200"/><mxPoint x="880" y="140"/><mxPoint x="925" y="140"/></Array></mxGeometry></mxCell><mxCell id="Xsw5yw4zyk3_1p55zwhL-65" style="edgeStyle=orthogonalEdgeStyle;rounded=0;orthogonalLoop=1;jettySize=auto;html=1;exitX=1;exitY=0.5;exitDx=0;exitDy=0;entryX=0;entryY=0.5;entryDx=0;entryDy=0;" parent="Xsw5yw4zyk3_1p55zwhL-0" source="Xsw5yw4zyk3_1p55zwhL-56" target="Xsw5yw4zyk3_1p55zwhL-53" edge="1"><mxGeometry relative="1" as="geometry"/></mxCell></root></mxGraphModel></diagram><diagram name="Gestão consulta" id="0783ab3e-0a74-02c8-0abd-f7b4e66b4bec"><mxGraphModel dx="1142" dy="800" grid="1" gridSize="10" guides="1" tooltips="1" connect="1" arrows="1" fold="1" page="1" pageScale="1" pageWidth="850" pageHeight="1100" background="#ffffff" math="0" shadow="0"><root><mxCell id="0"/><mxCell id="1" parent="0"/><mxCell id="1c1d494c118603dd-1" value="Gestão de consultas" style="swimlane;html=1;childLayout=stackLayout;startSize=20;rounded=0;shadow=0;comic=0;labelBackgroundColor=none;strokeWidth=1;fontFamily=Verdana;fontSize=12;align=center;" parent="1" vertex="1"><mxGeometry x="70" y="20" width="630" height="990" as="geometry"/></mxCell><mxCell id="1c1d494c118603dd-2" value="Médico" style="swimlane;html=1;startSize=20;" parent="1c1d494c118603dd-1" vertex="1"><mxGeometry y="20" width="370" height="970" as="geometry"/></mxCell><mxCell id="FbqYYx2SHmx5tCG4WL0g-28" value="" style="ellipse;fillColor=#000000;strokeColor=none;" parent="1c1d494c118603dd-2" vertex="1"><mxGeometry x="150" y="50" width="30" height="30" as="geometry"/></mxCell><mxCell id="FbqYYx2SHmx5tCG4WL0g-29" style="edgeStyle=orthogonalEdgeStyle;rounded=0;orthogonalLoop=1;jettySize=auto;html=1;exitX=0.5;exitY=1;exitDx=0;exitDy=0;entryX=0.5;entryY=0;entryDx=0;entryDy=0;" parent="1c1d494c118603dd-2" source="FbqYYx2SHmx5tCG4WL0g-28" edge="1"><mxGeometry relative="1" as="geometry"><mxPoint x="165" y="130" as="targetPoint"/></mxGeometry></mxCell><mxCell id="WqlgoDypYTSDNp3f7rmW-55" style="edgeStyle=orthogonalEdgeStyle;rounded=0;orthogonalLoop=1;jettySize=auto;html=1;exitX=0.5;exitY=1;exitDx=0;exitDy=0;entryX=0.5;entryY=0;entryDx=0;entryDy=0;" parent="1c1d494c118603dd-2" source="WqlgoDypYTSDNp3f7rmW-1" target="WqlgoDypYTSDNp3f7rmW-2" edge="1"><mxGeometry relative="1" as="geometry"/></mxCell><mxCell id="WqlgoDypYTSDNp3f7rmW-1" value="Chamar próximo utente" style="rounded=1;whiteSpace=wrap;html=1;" parent="1c1d494c118603dd-2" vertex="1"><mxGeometry x="105" y="130" width="120" height="60" as="geometry"/></mxCell><mxCell id="WqlgoDypYTSDNp3f7rmW-57" style="edgeStyle=orthogonalEdgeStyle;rounded=0;orthogonalLoop=1;jettySize=auto;html=1;exitX=0.5;exitY=1;exitDx=0;exitDy=0;entryX=0.5;entryY=0;entryDx=0;entryDy=0;" parent="1c1d494c118603dd-2" source="WqlgoDypYTSDNp3f7rmW-2" target="WqlgoDypYTSDNp3f7rmW-3" edge="1"><mxGeometry relative="1" as="geometry"/></mxCell><mxCell id="WqlgoDypYTSDNp3f7rmW-2" value="Dar tolerância de espera ao utente" style="rounded=1;whiteSpace=wrap;html=1;" parent="1c1d494c118603dd-2" vertex="1"><mxGeometry x="101.25" y="220" width="120" height="60" as="geometry"/></mxCell><mxCell id="WqlgoDypYTSDNp3f7rmW-58" style="edgeStyle=orthogonalEdgeStyle;rounded=0;orthogonalLoop=1;jettySize=auto;html=1;exitX=0;exitY=0.5;exitDx=0;exitDy=0;entryX=0.5;entryY=0;entryDx=0;entryDy=0;" parent="1c1d494c118603dd-2" source="WqlgoDypYTSDNp3f7rmW-3" target="WqlgoDypYTSDNp3f7rmW-4" edge="1"><mxGeometry relative="1" as="geometry"/></mxCell><mxCell id="WqlgoDypYTSDNp3f7rmW-59" style="edgeStyle=orthogonalEdgeStyle;rounded=0;orthogonalLoop=1;jettySize=auto;html=1;exitX=1;exitY=0.5;exitDx=0;exitDy=0;entryX=0.5;entryY=0;entryDx=0;entryDy=0;" parent="1c1d494c118603dd-2" source="WqlgoDypYTSDNp3f7rmW-3" target="WqlgoDypYTSDNp3f7rmW-5" edge="1"><mxGeometry relative="1" as="geometry"/></mxCell><mxCell id="WqlgoDypYTSDNp3f7rmW-3" value="" style="rhombus;whiteSpace=wrap;html=1;" parent="1c1d494c118603dd-2" vertex="1"><mxGeometry x="142.5" y="340" width="37.5" height="40" as="geometry"/></mxCell><mxCell id="WqlgoDypYTSDNp3f7rmW-92" style="edgeStyle=orthogonalEdgeStyle;rounded=0;orthogonalLoop=1;jettySize=auto;html=1;exitX=0.5;exitY=1;exitDx=0;exitDy=0;entryX=0.5;entryY=0;entryDx=0;entryDy=0;" parent="1c1d494c118603dd-2" source="WqlgoDypYTSDNp3f7rmW-4" edge="1"><mxGeometry relative="1" as="geometry"><mxPoint x="90" y="520" as="targetPoint"/></mxGeometry></mxCell><mxCell id="WqlgoDypYTSDNp3f7rmW-4" value="Realizar consulta" style="rounded=1;whiteSpace=wrap;html=1;" parent="1c1d494c118603dd-2" vertex="1"><mxGeometry x="30" y="410" width="120" height="60" as="geometry"/></mxCell><mxCell id="WqlgoDypYTSDNp3f7rmW-100" style="edgeStyle=orthogonalEdgeStyle;rounded=0;orthogonalLoop=1;jettySize=auto;html=1;exitX=0.5;exitY=1;exitDx=0;exitDy=0;entryX=0.5;entryY=0;entryDx=0;entryDy=0;" parent="1c1d494c118603dd-2" source="WqlgoDypYTSDNp3f7rmW-5" target="WqlgoDypYTSDNp3f7rmW-49" edge="1"><mxGeometry relative="1" as="geometry"/></mxCell><mxCell id="WqlgoDypYTSDNp3f7rmW-5" value="Decidir se aceita realizar consulta" style="rounded=1;whiteSpace=wrap;html=1;" parent="1c1d494c118603dd-2" vertex="1"><mxGeometry x="200" y="410" width="120" height="60" as="geometry"/></mxCell><mxCell id="WqlgoDypYTSDNp3f7rmW-132" style="edgeStyle=orthogonalEdgeStyle;rounded=0;orthogonalLoop=1;jettySize=auto;html=1;exitX=1;exitY=0.5;exitDx=0;exitDy=0;" parent="1c1d494c118603dd-2" source="WqlgoDypYTSDNp3f7rmW-49" target="WqlgoDypYTSDNp3f7rmW-94" edge="1"><mxGeometry relative="1" as="geometry"/></mxCell><mxCell id="soPoK1wTPWns_iYYmyCK-14" style="edgeStyle=orthogonalEdgeStyle;rounded=0;orthogonalLoop=1;jettySize=auto;html=1;exitX=0;exitY=0.5;exitDx=0;exitDy=0;entryX=1;entryY=0.5;entryDx=0;entryDy=0;fillColor=#f8cecc;strokeColor=#b85450;" parent="1c1d494c118603dd-2" source="WqlgoDypYTSDNp3f7rmW-49" target="soPoK1wTPWns_iYYmyCK-8" edge="1"><mxGeometry relative="1" as="geometry"><Array as="points"><mxPoint x="200" y="530"/><mxPoint x="200" y="620"/></Array></mxGeometry></mxCell><mxCell id="WqlgoDypYTSDNp3f7rmW-49" value="" style="rhombus;whiteSpace=wrap;html=1;" parent="1c1d494c118603dd-2" vertex="1"><mxGeometry x="241.25" y="510" width="37.5" height="40" as="geometry"/></mxCell><mxCell id="WqlgoDypYTSDNp3f7rmW-85" value="Terminar consulta" style="rounded=1;whiteSpace=wrap;html=1;" parent="1c1d494c118603dd-2" vertex="1"><mxGeometry x="42.5" y="520" width="95" height="50" as="geometry"/></mxCell><mxCell id="WqlgoDypYTSDNp3f7rmW-86" value="" style="ellipse;html=1;shape=endState;fillColor=#000000;strokeColor=#000000;" parent="1c1d494c118603dd-2" vertex="1"><mxGeometry x="75" y="700" width="30" height="30" as="geometry"/></mxCell><mxCell id="soPoK1wTPWns_iYYmyCK-1" style="edgeStyle=orthogonalEdgeStyle;rounded=0;orthogonalLoop=1;jettySize=auto;html=1;exitX=0.5;exitY=1;exitDx=0;exitDy=0;entryX=1;entryY=0.5;entryDx=0;entryDy=0;" parent="1c1d494c118603dd-2" source="WqlgoDypYTSDNp3f7rmW-94" target="WqlgoDypYTSDNp3f7rmW-4" edge="1"><mxGeometry relative="1" as="geometry"><Array as="points"><mxPoint x="305" y="640"/><mxPoint x="170" y="640"/><mxPoint x="170" y="440"/></Array></mxGeometry></mxCell><mxCell id="WqlgoDypYTSDNp3f7rmW-94" value="Remover falta de comparência" style="rounded=1;whiteSpace=wrap;html=1;fillColor=#f8cecc;strokeColor=#b85450;" parent="1c1d494c118603dd-2" vertex="1"><mxGeometry x="260" y="570" width="90" height="40" as="geometry"/></mxCell><mxCell id="WqlgoDypYTSDNp3f7rmW-138" value="Chegada do utente &lt;br&gt;dentro da tolerância&amp;nbsp;" style="text;html=1;align=center;verticalAlign=middle;resizable=0;points=[];autosize=1;" parent="1c1d494c118603dd-2" vertex="1"><mxGeometry x="30" y="320" width="120" height="30" as="geometry"/></mxCell><mxCell id="FbqYYx2SHmx5tCG4WL0g-56" value="Chegada do utente &lt;br&gt;após tolerância&amp;nbsp;" style="text;html=1;align=center;verticalAlign=middle;resizable=0;points=[];autosize=1;" parent="1c1d494c118603dd-2" vertex="1"><mxGeometry x="171.25" y="320" width="120" height="30" as="geometry"/></mxCell><mxCell id="WqlgoDypYTSDNp3f7rmW-139" value="não aceita" style="text;html=1;align=center;verticalAlign=middle;resizable=0;points=[];autosize=1;" parent="1c1d494c118603dd-2" vertex="1"><mxGeometry x="171.25" y="500" width="70" height="20" as="geometry"/></mxCell><mxCell id="FbqYYx2SHmx5tCG4WL0g-81" value="aceita" style="text;html=1;align=center;verticalAlign=middle;resizable=0;points=[];autosize=1;" parent="1c1d494c118603dd-2" vertex="1"><mxGeometry x="290" y="500" width="50" height="20" as="geometry"/></mxCell><mxCell id="soPoK1wTPWns_iYYmyCK-10" style="edgeStyle=orthogonalEdgeStyle;rounded=0;orthogonalLoop=1;jettySize=auto;html=1;exitX=0;exitY=0.5;exitDx=0;exitDy=0;entryX=0;entryY=0.5;entryDx=0;entryDy=0;" parent="1c1d494c118603dd-2" source="soPoK1wTPWns_iYYmyCK-8" target="WqlgoDypYTSDNp3f7rmW-1" edge="1"><mxGeometry relative="1" as="geometry"><Array as="points"><mxPoint x="20" y="620"/><mxPoint x="20" y="160"/></Array></mxGeometry></mxCell><mxCell id="soPoK1wTPWns_iYYmyCK-13" style="edgeStyle=orthogonalEdgeStyle;rounded=0;orthogonalLoop=1;jettySize=auto;html=1;exitX=0.5;exitY=1;exitDx=0;exitDy=0;entryX=0.5;entryY=0;entryDx=0;entryDy=0;" parent="1c1d494c118603dd-2" source="soPoK1wTPWns_iYYmyCK-8" target="WqlgoDypYTSDNp3f7rmW-86" edge="1"><mxGeometry relative="1" as="geometry"/></mxCell><mxCell id="soPoK1wTPWns_iYYmyCK-8" value="" style="rhombus;whiteSpace=wrap;html=1;" parent="1c1d494c118603dd-2" vertex="1"><mxGeometry x="71.25" y="600" width="37.5" height="40" as="geometry"/></mxCell><mxCell id="FbqYYx2SHmx5tCG4WL0g-14" value="Sistema informático" style="swimlane;html=1;startSize=20;" parent="1c1d494c118603dd-1" vertex="1"><mxGeometry x="370" y="20" width="260" height="970" as="geometry"/></mxCell><mxCell id="WqlgoDypYTSDNp3f7rmW-82" style="edgeStyle=orthogonalEdgeStyle;rounded=0;orthogonalLoop=1;jettySize=auto;html=1;exitX=0.5;exitY=1;exitDx=0;exitDy=0;entryX=0.5;entryY=0;entryDx=0;entryDy=0;" parent="FbqYYx2SHmx5tCG4WL0g-14" source="WqlgoDypYTSDNp3f7rmW-76" target="WqlgoDypYTSDNp3f7rmW-77" edge="1"><mxGeometry relative="1" as="geometry"/></mxCell><mxCell id="WqlgoDypYTSDNp3f7rmW-76" value="Actualizar ecrãs da sala de espera" style="rounded=1;whiteSpace=wrap;html=1;" parent="FbqYYx2SHmx5tCG4WL0g-14" vertex="1"><mxGeometry x="80" y="130" width="120" height="60" as="geometry"/></mxCell><mxCell id="WqlgoDypYTSDNp3f7rmW-77" value="Registar hora de inicio da consulta" style="rounded=1;whiteSpace=wrap;html=1;" parent="FbqYYx2SHmx5tCG4WL0g-14" vertex="1"><mxGeometry x="80" y="240" width="120" height="60" as="geometry"/></mxCell><mxCell id="WqlgoDypYTSDNp3f7rmW-78" value="Registar falta de comparência do utente" style="rounded=1;whiteSpace=wrap;html=1;fillColor=#f8cecc;strokeColor=#b85450;" parent="FbqYYx2SHmx5tCG4WL0g-14" vertex="1"><mxGeometry x="80" y="410" width="120" height="60" as="geometry"/></mxCell><mxCell id="WqlgoDypYTSDNp3f7rmW-79" value="Remover registo de falta de comparência do utente" style="rounded=1;whiteSpace=wrap;html=1;fillColor=#f8cecc;strokeColor=#b85450;" parent="FbqYYx2SHmx5tCG4WL0g-14" vertex="1"><mxGeometry x="80" y="500" width="120" height="60" as="geometry"/></mxCell><mxCell id="WqlgoDypYTSDNp3f7rmW-80" value="Registar hora do fim da consulta" style="rounded=1;whiteSpace=wrap;html=1;" parent="FbqYYx2SHmx5tCG4WL0g-14" vertex="1"><mxGeometry x="80" y="680" width="120" height="60" as="geometry"/></mxCell><mxCell id="WqlgoDypYTSDNp3f7rmW-134" style="edgeStyle=orthogonalEdgeStyle;rounded=0;orthogonalLoop=1;jettySize=auto;html=1;exitX=1;exitY=0.5;exitDx=0;exitDy=0;entryX=0;entryY=0.5;entryDx=0;entryDy=0;" parent="1c1d494c118603dd-1" source="WqlgoDypYTSDNp3f7rmW-1" target="WqlgoDypYTSDNp3f7rmW-76" edge="1"><mxGeometry relative="1" as="geometry"/></mxCell><mxCell id="soPoK1wTPWns_iYYmyCK-2" style="edgeStyle=orthogonalEdgeStyle;rounded=0;orthogonalLoop=1;jettySize=auto;html=1;exitX=1;exitY=0.5;exitDx=0;exitDy=0;entryX=0.5;entryY=0;entryDx=0;entryDy=0;" parent="1c1d494c118603dd-1" source="WqlgoDypYTSDNp3f7rmW-3" target="WqlgoDypYTSDNp3f7rmW-78" edge="1"><mxGeometry relative="1" as="geometry"/></mxCell><mxCell id="soPoK1wTPWns_iYYmyCK-3" style="edgeStyle=orthogonalEdgeStyle;rounded=0;orthogonalLoop=1;jettySize=auto;html=1;exitX=1;exitY=0.5;exitDx=0;exitDy=0;entryX=0;entryY=0.5;entryDx=0;entryDy=0;" parent="1c1d494c118603dd-1" source="WqlgoDypYTSDNp3f7rmW-94" target="WqlgoDypYTSDNp3f7rmW-79" edge="1"><mxGeometry relative="1" as="geometry"/></mxCell><mxCell id="soPoK1wTPWns_iYYmyCK-9" style="edgeStyle=orthogonalEdgeStyle;rounded=0;orthogonalLoop=1;jettySize=auto;html=1;exitX=1;exitY=0.5;exitDx=0;exitDy=0;entryX=0;entryY=0.5;entryDx=0;entryDy=0;" parent="1c1d494c118603dd-1" source="WqlgoDypYTSDNp3f7rmW-85" target="WqlgoDypYTSDNp3f7rmW-80" edge="1"><mxGeometry relative="1" as="geometry"><Array as="points"><mxPoint x="160" y="565"/><mxPoint x="160" y="730"/></Array></mxGeometry></mxCell><mxCell id="soPoK1wTPWns_iYYmyCK-7" style="edgeStyle=orthogonalEdgeStyle;rounded=0;orthogonalLoop=1;jettySize=auto;html=1;exitX=0.5;exitY=1;exitDx=0;exitDy=0;" parent="1" source="WqlgoDypYTSDNp3f7rmW-85" edge="1"><mxGeometry relative="1" as="geometry"><mxPoint x="159.9411764705883" y="640" as="targetPoint"/></mxGeometry></mxCell></root></mxGraphModel></diagram></mxfile>